<svg width="452" height="422" viewBox="0 0 452 422" fill="none" xmlns="http://www.w3.org/2000/svg">
<g clip-path="url(#clip0)">
<path d="M450.819 460.017V562.24C450.819 584.473 432.731 602.56 410.497 602.56H218.322C196.088 602.56 178 584.473 178 562.24V117.322C178 95.0887 196.088 77 218.322 77H410.497C432.731 77 450.819 95.0887 450.819 117.322V447.794" fill="#F7F7F7"/>
<path d="M450.819 460.017V562.24C450.819 584.473 432.731 602.56 410.497 602.56H218.322C196.088 602.56 178 584.473 178 562.24V117.322C178 95.0887 196.088 77 218.322 77H410.497C432.731 77 450.819 95.0887 450.819 117.322V447.794" stroke="#4A4A4A" stroke-width="2" stroke-linecap="round" stroke-linejoin="round"/>
<path d="M190.991 176.427V117.321C190.991 102.228 203.227 89.9918 218.321 89.9918H251.874C256.872 89.9918 260.993 93.914 261.237 98.9062C261.654 106.721 268.113 112.845 275.94 112.845H352.879C360.706 112.845 367.165 106.721 367.581 98.9062C367.827 93.914 371.947 89.9918 376.944 89.9918H410.499C425.592 89.9918 437.828 102.228 437.828 117.321V562.241C437.828 577.334 425.592 589.569 410.499 589.569H218.321C203.227 589.569 190.991 577.334 190.991 562.241V181.92" fill="white"/>
<path d="M190.987 176.431V117.325C190.987 102.233 203.222 89.9959 218.316 89.9959H251.869C256.867 89.9959 260.988 93.9181 261.232 98.9104C261.649 106.725 268.108 112.849 275.935 112.849H352.875C360.701 112.849 367.161 106.725 367.576 98.9104C367.822 93.9181 371.943 89.9959 376.94 89.9959H410.494C425.588 89.9959 437.823 102.233 437.823 117.325V562.246C437.823 577.338 425.588 589.574 410.494 589.574H218.316C203.222 589.574 190.987 577.338 190.987 562.246V181.924" stroke="#4A4A4A" stroke-width="2" stroke-linecap="round" stroke-linejoin="round"/>
<path d="M190.993 225.979V223.123" stroke="#4A4A4A" stroke-width="2" stroke-linecap="round" stroke-linejoin="round"/>
<path d="M325.37 99.7099H286.443C284.756 99.7099 283.39 98.3434 283.39 96.6569C283.39 94.9716 284.756 93.6039 286.443 93.6039H325.37C327.056 93.6039 328.423 94.9716 328.423 96.6569C328.423 98.3434 327.056 99.7099 325.37 99.7099Z" fill="#ECECEC"/>
<path d="M340.705 101.381C338.096 101.381 335.981 99.2671 335.981 96.657C335.981 94.0481 338.096 91.9329 340.705 91.9329C343.314 91.9329 345.429 94.0481 345.429 96.657C345.429 99.2671 343.314 101.381 340.705 101.381Z" fill="#ECECEC"/>
<!-- Right phone: checkmark circle instead of dollar sign -->
<path d="M373.007 235.6C373.007 267.964 346.718 294.2 314.29 294.2C281.861 294.2 255.572 267.964 255.572 235.6C255.572 203.236 281.861 177 314.29 177C346.718 177 373.007 203.236 373.007 235.6Z" fill="#ECECEC"/>
<path d="M295 235L308 248L335 221" stroke="#4A4A4A" stroke-width="4" stroke-linecap="round" stroke-linejoin="round"/>
<path d="M382.793 352.8H245.786C240.404 352.8 236 348.405 236 343.033C236 337.661 240.404 333.266 245.786 333.266H382.793C388.176 333.266 392.579 337.661 392.579 343.033C392.579 348.405 388.176 352.8 382.793 352.8Z" fill="#ECECEC"/>
<path d="M343.648 391.866H284.931C279.549 391.866 275.145 387.471 275.145 382.1C275.145 376.728 279.549 372.333 284.931 372.333H343.648C349.031 372.333 353.434 376.728 353.434 382.1C353.434 387.471 349.031 391.866 343.648 391.866Z" fill="#ECECEC"/>
<!-- Left phone outer shell -->
<path d="M273.819 384.017V486.24C273.819 508.473 255.731 526.56 233.497 526.56H41.3217C19.0875 526.56 1 508.473 1 486.24V41.3217C1 19.0887 19.0875 1 41.3217 1H233.497C255.731 1 273.819 19.0887 273.819 41.3217V371.794" fill="#F7F7F7"/>
<path d="M273.819 384.017V486.24C273.819 508.473 255.731 526.56 233.497 526.56H41.3217C19.0875 526.56 1 508.473 1 486.24V41.3217C1 19.0887 19.0875 1 41.3217 1H233.497C255.731 1 273.819 19.0887 273.819 41.3217V371.794" stroke="#4A4A4A" stroke-width="2" stroke-linecap="round" stroke-linejoin="round"/>
<path d="M273.819 377.287V378.99" stroke="#4A4A4A" stroke-width="2" stroke-linecap="round" stroke-linejoin="round"/>
<path d="M13.9915 100.427V41.3209C13.9915 26.2285 26.227 13.9918 41.3206 13.9918H74.8738C79.8719 13.9918 83.9925 17.914 84.237 22.9062C84.6539 30.7211 91.113 36.8448 98.9397 36.8448H175.879C183.706 36.8448 190.165 30.7211 190.581 22.9062C190.827 17.914 194.947 13.9918 199.944 13.9918H233.499C248.592 13.9918 260.828 26.2285 260.828 41.3209V486.241C260.828 501.334 248.592 513.569 233.499 513.569H41.3206C26.227 513.569 13.9915 501.334 13.9915 486.241V105.92" fill="white"/>
<!-- Chat bubbles -->
<path d="M56.3942 103.992C53.326 103.992 50.4035 104.615 47.7458 105.742C39.7832 109.086 34.0934 116.908 33.9391 126.009C33.8997 128.342 34.2172 130.594 34.8412 132.716C34.8412 132.716 35.9572 136.129 33.8175 140.775C32.78 143.028 31.4208 144.84 30.3027 146.105C29.5757 146.927 30.2093 148.22 31.3056 148.152C32.8886 148.053 34.8661 147.778 36.7016 147.094C39.0302 146.227 40.618 145.111 41.4651 144.413C41.9043 144.051 42.5301 144.032 42.9868 144.372C45.5426 146.27 48.5189 147.634 51.7485 148.307C52.1568 148.392 52.3048 148.416 52.4521 148.442C53.7324 148.672 55.048 148.798 56.3942 148.798H147.472C159.721 148.798 169.65 138.868 169.65 126.618V126.172C169.65 113.922 159.721 103.992 147.472 103.992H56.3942Z" fill="#ECECEC"/>
<path d="M218.247 166.992C221.316 166.992 224.238 167.615 226.896 168.742C234.858 172.086 240.548 179.908 240.702 189.009C240.742 191.342 240.424 193.594 239.8 195.716C239.8 195.716 238.684 199.129 240.824 203.775C241.861 206.028 243.221 207.84 244.339 209.105C245.066 209.927 244.432 211.22 243.336 211.152C241.753 211.053 239.775 210.778 237.94 210.094C235.611 209.227 234.023 208.111 233.176 207.413C232.737 207.051 232.111 207.032 231.655 207.372C229.099 209.27 226.123 210.634 222.893 211.307C222.485 211.392 222.337 211.416 222.189 211.442C220.909 211.672 219.593 211.798 218.247 211.798H157.169C144.921 211.798 134.991 201.868 134.991 189.618V189.172C134.991 176.922 144.921 166.992 157.169 166.992H218.247Z" fill="#ECECEC"/>
<!-- Blue bubble (was pink) with "Envoyé." text -->
<path d="M56.3942 223.502C53.326 223.502 50.4035 224.126 47.7458 225.253C39.7832 228.596 34.0934 236.419 33.9391 245.519C33.8997 247.852 34.2172 250.105 34.8412 252.227C34.8412 252.227 35.9572 255.64 33.8175 260.286C32.78 262.539 31.4208 264.351 30.3027 265.615C29.5757 266.438 30.2093 267.731 31.3056 267.663C32.8886 267.563 34.8661 267.289 36.7016 266.605C39.0302 265.738 40.618 264.621 41.4651 263.924C41.9043 263.562 42.5301 263.543 42.9868 263.883C45.5426 265.781 48.5189 267.144 51.7485 267.818C52.1568 267.903 52.3048 267.927 52.4521 267.953C53.7324 268.183 55.048 268.309 56.3942 268.309H97.4724C109.721 268.309 119.65 258.379 119.65 246.129V245.683C119.65 233.433 109.721 223.502 97.4724 223.502H56.3942Z" fill="#4366E0"/>
<text x="60" y="250" font-family="Inter, system-ui, sans-serif" font-weight="600" font-size="14" fill="white">Envoyé.</text>
<!-- Left phone inner border -->
<path d="M13.9868 100.431V41.325C13.9868 26.2326 26.2223 13.9959 41.316 13.9959H74.8691C79.8673 13.9959 83.9879 17.9181 84.2324 22.9104C84.6493 30.7253 91.1084 36.8489 98.9351 36.8489H175.875C183.701 36.8489 190.161 30.7253 190.576 22.9104C190.822 17.9181 194.943 13.9959 199.94 13.9959H233.494C248.588 13.9959 260.823 26.2326 260.823 41.325V486.246C260.823 501.338 248.588 513.574 233.494 513.574H41.316C26.2223 513.574 13.9868 501.338 13.9868 486.246V105.924" stroke="#4A4A4A" stroke-width="2" stroke-linecap="round" stroke-linejoin="round"/>
<path d="M13.9927 149.979V147.123" stroke="#4A4A4A" stroke-width="2" stroke-linecap="round" stroke-linejoin="round"/>
<path d="M148.37 23.7099H109.443C107.756 23.7099 106.39 22.3434 106.39 20.6569C106.39 18.9716 107.756 17.6039 109.443 17.6039H148.37C150.056 17.6039 151.423 18.9716 151.423 20.6569C151.423 22.3434 150.056 23.7099 148.37 23.7099Z" fill="#ECECEC"/>
<path d="M163.705 25.3811C161.096 25.3811 158.981 23.2671 158.981 20.657C158.981 18.0481 161.096 15.9329 163.705 15.9329C166.314 15.9329 168.429 18.0481 168.429 20.657C168.429 23.2671 166.314 25.3811 163.705 25.3811Z" fill="#ECECEC"/>
<path opacity="0.031342" d="M275 428H295V77.0004H275V428Z" fill="black"/>
</g>
<defs>
<clipPath id="clip0">
<rect width="452" height="422" fill="white"/>
</clipPath>
</defs>
</svg>
