<svg xmlns="http://www.w3.org/2000/svg" viewBox="0 0 80 80" fill="none">
  <circle cx="40" cy="40" r="40" fill="#E8E0F0"/>
  <circle cx="40" cy="30" r="14" fill="#D4C4E0"/>
  <path d="M40 48c-16 0-26 8-28 18a40 40 0 0 0 56 0c-2-10-12-18-28-18z" fill="#D4C4E0"/>
  <circle cx="40" cy="30" r="13" fill="#F5E6D0"/>
  <path d="M27 26c0-10 6-16 13-16s13 6 13 16" fill="#4A3728"/>
  <path d="M25 28c2-12 8-19 15-19s13 7 15 19c1-2 2-6 1-10-2-10-8-16-16-16S26 8 24 18c-1 4 0 8 1 10z" fill="#3D2E1F"/>
  <ellipse cx="35" cy="30" rx="1.5" ry="2" fill="#3D2E1F"/>
  <ellipse cx="45" cy="30" rx="1.5" ry="2" fill="#3D2E1F"/>
  <path d="M37 36c1.5 1.5 4.5 1.5 6 0" stroke="#C4956A" stroke-width="1.2" stroke-linecap="round" fill="none"/>
  <path d="M40 48c-16 0-26 8-28 18a40 40 0 0 0 56 0c-2-10-12-18-28-18z" fill="#4F5DE4"/>
</svg>
